<svg id="vuesax_twotone_convertshape" data-name="vuesax/twotone/convertshape" xmlns="http://www.w3.org/2000/svg" width="22.383" height="22" viewBox="0 0 22.383 22">
  <g id="convertshape">
    <path id="Vector" d="M8.436,2.952V6.42c0,2.109-.844,2.952-2.952,2.952H2.952C.844,9.373,0,8.529,0,6.42V2.952C0,.844.844,0,2.952,0H5.483C7.592,0,8.436.844,8.436,2.952Z" transform="translate(12.073 1.875)" fill="none" stroke="#2189d1" stroke-linecap="round" stroke-linejoin="round" stroke-width="1.5"/>
    <path id="Vector-2" data-name="Vector" d="M8.436,2.952V6.42c0,2.109-.844,2.952-2.952,2.952H2.952C.844,9.373,0,8.529,0,6.42V2.952C0,.844.844,0,2.952,0H5.483C7.592,0,8.436.844,8.436,2.952Z" transform="translate(1.875 10.753)" fill="none" stroke="#2189d1" stroke-linecap="round" stroke-linejoin="round" stroke-width="1.5"/>
    <path id="Vector-3" data-name="Vector" d="M6.561,0A6.556,6.556,0,0,1,0,6.561l.984-1.64" transform="translate(13.947 13.564)" fill="none" stroke="#00297e" stroke-linecap="round" stroke-linejoin="round" stroke-width="1.5"/>
    <path id="Vector-4" data-name="Vector" d="M0,6.561A6.556,6.556,0,0,1,6.561,0L5.577,1.64" transform="translate(1.875 1.875)" fill="none" stroke="#00297e" stroke-linecap="round" stroke-linejoin="round" stroke-width="1.5"/>
    <path id="Vector-5" data-name="Vector" d="M0,0H22.383V22H0Z" fill="none" opacity="0"/>
  </g>
</svg>
