<svg id="vuesax_twotone_layer" data-name="vuesax/twotone/layer" xmlns="http://www.w3.org/2000/svg" width="22.383" height="22" viewBox="0 0 22.383 22">
  <g id="layer">
    <path id="Vector" d="M8.9.213,14.366,2.7c1.574.711,1.574,1.887,0,2.6L8.9,7.78a3.1,3.1,0,0,1-2.259,0L1.181,5.3c-1.574-.711-1.574-1.887,0-2.6L6.644.213A3.1,3.1,0,0,1,8.9.213Z" transform="translate(3.219 2.555)" fill="none" stroke="#2189d1" stroke-linecap="round" stroke-linejoin="round" stroke-width="1.5"/>
    <path id="Vector-2" data-name="Vector" d="M0,0A2.433,2.433,0,0,0,1.3,2.039L7.6,4.9a1.807,1.807,0,0,0,1.5,0l6.3-2.863A2.433,2.433,0,0,0,16.694,0" transform="translate(2.844 9.984)" fill="none" stroke="#00297e" stroke-linecap="round" stroke-linejoin="round" stroke-width="1.5"/>
    <path id="Vector-3" data-name="Vector" d="M0,0A2.238,2.238,0,0,0,1.3,2.039L7.6,4.9a1.807,1.807,0,0,0,1.5,0l6.3-2.863A2.238,2.238,0,0,0,16.694,0" transform="translate(2.844 14.415)" fill="none" stroke="#00297e" stroke-linecap="round" stroke-linejoin="round" stroke-width="1.5"/>
    <path id="Vector-4" data-name="Vector" d="M0,0H22.383V22H0Z" fill="none" opacity="0"/>
  </g>
</svg>
