<svg id="vuesax_twotone_message-text" data-name="vuesax/twotone/message-text" xmlns="http://www.w3.org/2000/svg" width="22.383" height="22" viewBox="0 0 22.383 22">
  <g id="message-text">
    <path id="Vector" d="M6.069,15.548H5.6c-3.735,0-5.6-.915-5.6-5.488V5.488Q0,0,5.6,0h7.47q5.6,0,5.6,5.488v4.573q0,5.488-5.6,5.488h-.467a.953.953,0,0,0-.747.366l-1.4,1.829a1.342,1.342,0,0,1-2.241,0l-1.4-1.829A1.063,1.063,0,0,0,6.069,15.548Z" transform="translate(1.854 1.854)" fill="none" stroke="#2189d1" stroke-linecap="round" stroke-linejoin="round" stroke-width="1.5"/>
    <path id="Vector-2" data-name="Vector" d="M0,0H9.272" transform="translate(6.556 7.333)" fill="none" stroke="#00297e" stroke-linecap="round" stroke-linejoin="round" stroke-width="1.5"/>
    <path id="Vector-3" data-name="Vector" d="M0,0H5.563" transform="translate(6.541 11.917)" fill="none" stroke="#00297e" stroke-linecap="round" stroke-linejoin="round" stroke-width="1.5"/>
    <path id="Vector-4" data-name="Vector" d="M0,0H22.383V22H0Z" fill="none" opacity="0"/>
  </g>
</svg>
