<svg id="vuesax_twotone_home-hashtag" data-name="vuesax/twotone/home-hashtag" xmlns="http://www.w3.org/2000/svg" width="22.383" height="22" viewBox="0 0 22.383 22">
  <g id="home-hashtag">
    <path id="Vector" d="M6.546.751,1.52,4.587A4.314,4.314,0,0,0,0,7.619v6.767a3.9,3.9,0,0,0,3.926,3.854h10.8A3.9,3.9,0,0,0,18.649,14.4V7.747A4.287,4.287,0,0,0,16.971,4.6L11.208.642A4.257,4.257,0,0,0,6.546.751Z" transform="translate(1.867 1.883)" fill="none" stroke="#2189d1" stroke-linecap="round" stroke-linejoin="round" stroke-width="1.5"/>
    <g id="Group_705" data-name="Group 705" transform="translate(6.991 8.16)">
      <path id="Vector-2" data-name="Vector" d="M0,0V8.4" transform="translate(4.2)" fill="none" stroke="#2189d1" stroke-linecap="round" stroke-linejoin="round" stroke-width="1.5"/>
      <path id="Vector-3" data-name="Vector" d="M0,0H8.4" transform="translate(0 4.2)" fill="none" stroke="#2189d1" stroke-linecap="round" stroke-linejoin="round" stroke-width="1.5"/>
      <path id="Vector-4" data-name="Vector" d="M2.8,8.4H5.6A2.808,2.808,0,0,0,8.4,5.6V2.8A2.808,2.808,0,0,0,5.6,0H2.8A2.808,2.808,0,0,0,0,2.8V5.6A2.808,2.808,0,0,0,2.8,8.4Z" fill="none" stroke="#00297e" stroke-linecap="round" stroke-linejoin="round" stroke-width="1.5"/>
    </g>
    <path id="Vector-5" data-name="Vector" d="M0,0H22.383V22H0Z" fill="none" opacity="0"/>
  </g>
</svg>
