<svg id="vuesax_twotone_profile-2user" data-name="vuesax/twotone/profile-2user" xmlns="http://www.w3.org/2000/svg" width="22.383" height="22" viewBox="0 0 22.383 22">
  <g id="profile-2user">
    <path id="Vector" d="M4.29,8.272a1.7,1.7,0,0,0-.308,0,4.146,4.146,0,1,1,.308,0Z" transform="translate(4.253 1.865)" fill="none" stroke="#2189d1" stroke-linecap="round" stroke-linejoin="round" stroke-width="1.5"/>
    <path id="Vector-2" data-name="Vector" d="M.121,0A3.262,3.262,0,0,1,3.385,3.264,3.269,3.269,0,0,1,.242,6.528a1.053,1.053,0,0,0-.242,0" transform="translate(15.183 3.64)" fill="none" stroke="#00297e" stroke-linecap="round" stroke-linejoin="round" stroke-width="1.5"/>
    <path id="Vector-3" data-name="Vector" d="M1.693,1.28c-2.257,1.511-2.257,3.973,0,5.474a9.108,9.108,0,0,0,9.336,0c2.257-1.511,2.257-3.973,0-5.474A9.151,9.151,0,0,0,1.693,1.28Z" transform="translate(2.187 11.916)" fill="none" stroke="#2189d1" stroke-linecap="round" stroke-linejoin="round" stroke-width="1.5"/>
    <path id="Vector-4" data-name="Vector" d="M0,5.6a4.511,4.511,0,0,0,1.828-.811A2.362,2.362,0,0,0,1.828.8,4.638,4.638,0,0,0,.028,0" transform="translate(17.104 12.759)" fill="none" stroke="#00297e" stroke-linecap="round" stroke-linejoin="round" stroke-width="1.5"/>
    <path id="Vector-5" data-name="Vector" d="M0,0H22.383V22H0Z" transform="translate(22.383 22) rotate(180)" fill="none" opacity="0"/>
  </g>
</svg>
